<svg width="32" height="32" viewBox="0 0 32 32" fill="none" xmlns="http://www.w3.org/2000/svg">
<rect width="32" height="32" rx="8" fill="white"/>
<path fill-rule="evenodd" clip-rule="evenodd" d="M21.125 13.3754L26.5 10.2505L21.125 7.12524V13.3754Z" fill="#DBF1C1"/>
<path fill-rule="evenodd" clip-rule="evenodd" d="M10.375 19.625L15.75 22.7502L10.375 25.875V19.625Z" fill="#53A626"/>
<path fill-rule="evenodd" clip-rule="evenodd" d="M15.75 16.5L10.375 19.625L15.75 22.75V16.5Z" fill="#1F4F22"/>
<path fill-rule="evenodd" clip-rule="evenodd" d="M10.375 25.875L15.75 28.9997V22.75L10.375 25.875Z" fill="#1F4F22"/>
<path fill-rule="evenodd" clip-rule="evenodd" d="M5 22.75V22.7502L10.3747 25.875V19.625L5 22.75Z" fill="#1F4F22"/>
<path fill-rule="evenodd" clip-rule="evenodd" d="M21.125 19.625L26.5 22.75V16.5L21.125 19.625Z" fill="#B2D530"/>
<path fill-rule="evenodd" clip-rule="evenodd" d="M15.75 10.25L21.125 13.375L15.75 16.5V10.25Z" fill="#B2D530"/>
<path fill-rule="evenodd" clip-rule="evenodd" d="M5 16.4998V16.5L10.3747 19.625V13.375L5 16.4998Z" fill="#B2D530"/>
<path fill-rule="evenodd" clip-rule="evenodd" d="M15.75 29L21.1247 25.8752L15.75 22.75V29Z" fill="#53A626"/>
<path fill-rule="evenodd" clip-rule="evenodd" d="M21.125 25.875L26.5 22.75L21.125 19.625V25.875Z" fill="#1F4F22"/>
<path fill-rule="evenodd" clip-rule="evenodd" d="M15.75 4L10.375 7.12476L15.75 10.25V4Z" fill="#DBF1C1"/>
<path fill-rule="evenodd" clip-rule="evenodd" d="M21.125 13.3752L15.75 16.5002L21.125 19.6252V13.3752Z" fill="#DBF1C1"/>
<path fill-rule="evenodd" clip-rule="evenodd" d="M21.125 19.625L15.75 22.7502L21.125 25.875V19.625Z" fill="#B2D530"/>
</svg>
